<svg width="110" height="58" viewBox="0 0 110 58" fill="none" xmlns="http://www.w3.org/2000/svg">
<path d="M4.62651 26.6986C5.66364 24.4762 4.11884 25.949 2.9723 26.6986C2.50269 27.0057 1.98839 27.2684 1.52486 27.5774C-1.35079 29.4945 8.37135 26.601 11.7603 25.9232C30.0821 22.2589 48.0546 16.9797 66.5046 13.9302C69.4578 13.442 72.9888 12.7412 76.068 12.7412C79.468 12.7412 69.3792 13.966 66.0393 14.6022M13.9315 10.8802C13.9315 9.25465 13.9554 7.6358 13.7247 6.0209C12.9006 0.25233 12.0601 9.21542 11.8637 10.2081C10.328 17.9718 8.17288 25.6541 7.21122 33.5223C7.0791 34.6032 6.63411 45.7767 10.2095 39.9323C15.8283 30.7477 15.8869 19.6952 19.1526 9.89797C20.0082 7.33118 20.8643 10.032 20.7034 11.1903C20.1173 15.4105 16.7818 20.8931 17.7568 25.1478C18.1302 26.7769 23.1674 18.8957 23.3398 18.5309C23.3716 18.4636 23.4265 18.3159 23.4979 18.1079M23.4979 18.1079C24.1109 16.3224 25.9469 10.0993 24.9424 12.2759C24.447 13.3492 23.8197 15.8016 23.4979 18.1079ZM23.4979 18.1079C22.9348 22.1432 23.3071 25.7312 26.9584 20.7021C28.1975 18.9955 29.149 17.0775 29.9528 15.0866M29.9528 15.0866C30.87 12.8147 31.5947 10.4478 32.3346 8.19206C32.4816 7.74414 34.1721 -0.141394 32.0762 4.2116C31.3303 5.76062 30.0381 11.2753 29.9528 15.0866ZM29.9528 15.0866C29.8747 18.5737 30.8069 20.635 34.0922 16.9284C35.7566 15.0506 37.3698 12.9188 38.7416 10.677M38.7416 10.677C39.6391 9.21025 40.4333 7.69647 41.071 6.17598C42.4507 2.88589 40.0832 6.91172 39.7786 7.77851C39.4392 8.74449 39.088 9.70951 38.7416 10.677ZM38.7416 10.677C38.1059 12.4527 37.4866 14.2366 36.9871 16.0496C36.908 16.3368 36.5447 17.6114 36.0983 19.1344M36.0983 19.1344C35.2738 21.9475 34.1656 25.608 34.0405 25.458C33.0646 24.2868 34.2743 21.7859 36.0983 19.1344ZM36.0983 19.1344C38.5654 15.5483 42.1562 11.6867 42.9837 10.4666C43.2321 10.1002 43.4728 9.64745 43.7019 9.14011M43.7019 9.14011C45.6716 4.77854 46.7862 -3.61451 44.6379 4.2116C44.3463 5.27381 43.9731 7.13577 43.7019 9.14011ZM43.7019 9.14011C42.9172 14.9401 42.9867 21.9323 48.3599 14.1886C48.6565 13.7611 53.0632 6.00339 53.1157 6.0209C54.0678 6.33826 52.515 7.93808 52.2886 8.91578C51.8343 10.8775 50.765 14.1626 51.4098 16.2047C51.547 16.6389 60.3655 4.01088 60.2496 5.19379C59.0177 17.7591 55.7392 28.9314 51.1514 40.6561M30.6804 43.4476C28.1034 42.7113 21.7065 41.704 24.9941 37.6578C28.2079 33.7024 33.8824 30.4348 38.6413 28.8698C42.4786 27.6079 44.1837 27.7732 44.5725 28.7428M44.5725 28.7428C45.1414 30.1614 42.8928 33.3016 40.3824 36.2119M44.5725 28.7428C43.0794 31.1966 41.6776 33.7056 40.3824 36.2119M44.5725 28.7428C46.8472 25.0046 49.3338 21.3945 51.9785 18.1174C52.8401 17.0497 51.5391 20.8334 51.1514 22.1495C49.5257 27.667 48.3692 33.6123 48.0497 39.3637C48.0442 39.4627 48.0396 39.5593 48.0358 39.6534M40.3824 36.2119C38.3397 38.58 36.1236 40.7959 35.111 41.8085L35.0744 41.8451C33.6148 43.3047 32.5179 44.0969 35.2812 42.8273C35.9886 42.5023 36.8119 42.1074 37.7056 41.7013M40.3824 36.2119C39.722 37.4898 39.0893 38.767 38.4863 40.0358C38.2512 40.5304 37.9853 41.0909 37.7056 41.7013M37.7056 41.7013C40.918 40.2419 45.0391 38.6389 47.9463 39.6222C47.9765 39.6324 48.0063 39.6428 48.0358 39.6534M37.7056 41.7013C35.849 45.7538 33.3837 52.0075 35.2812 55.8025C38.0356 61.3112 52.6714 46.9554 50.0627 41.3562M48.0358 39.6534C49.0628 40.0209 49.7155 40.611 50.0627 41.3562M48.0358 39.6534C47.9152 42.6703 48.6842 43.1719 50.0627 41.3562M50.0627 41.3562C50.304 41.0384 50.564 40.6496 50.8412 40.1908C53.6938 35.4692 56.2948 30.526 58.9055 25.6648C59.9907 23.6441 59.3816 33.1028 59.5775 34.8663C59.875 37.5431 65.8914 25.6916 66.3495 24.5792C66.7867 23.5174 67.9367 20.3326 67.8486 21.4775C67.5687 25.1165 66.9167 28.7221 66.9698 32.385C67.0745 39.6062 73.6976 26.5172 74.2587 25.0444C74.764 23.7181 75.067 22.8948 75.2259 22.4533M75.2259 22.4533C75.4401 21.8583 75.3926 21.9572 75.2259 22.4533ZM75.2259 22.4533C74.6836 24.0673 72.8804 29.885 74.724 29.6969C77.6307 29.4003 79.4703 25.2691 80.5057 22.0841M80.5057 22.0841C80.8223 21.1104 81.0637 20.2251 81.2374 19.5648C82.4887 14.8101 81.8411 15.7902 80.9273 19.7199C80.781 20.3487 80.6292 21.1805 80.5057 22.0841ZM80.5057 22.0841C79.9284 26.3113 79.9738 32.1122 84.1323 26.0783C84.9021 24.9613 86.8449 20.387 88.3712 20.0818C89.1291 19.9302 89.6072 23.3875 89.8704 23.8555C91.661 27.0388 94.8372 24.249 96.7457 22.9767M103.259 19.2547C103.974 17.8244 110.048 12.1912 108.842 14.6022" stroke="#535353" stroke-width="0.902418" stroke-linecap="round"/>
</svg>
